# xmcd
#
# Track frame offsets:
#	183
#	12315
#	25933
#	49085
#	61983
#	78080
#	124250
#	136610
#	149690
#	174755
#	194440
#	218995
#	231900
#	255073
#	264408
#	293403
#	317553
#
# Disc length: 4521 seconds
#
# Revision: 4
# Processed by: cddbd v1.5.2PL0 Copyright (c) Steve Scherf et al.
# Submitted via: audiograbber 1.83.01
#
DISCID=e311a711
DTITLE=John Lee Hooker - The Essential
DYEAR=1993
DGENRE=Blues
TTITLE0=Boom, Boom, Boom, Boom
TTITLE1=One Bourbon, One Scotch, One Beer
TTITLE2=Decoration Day
TTITLE3=Back Biters And Syndicators
TTITLE4=Doin' The Shout
TTITLE5=Never Get Out Of These Blues Alive
TTITLE6=I'm In The Mood
TTITLE7=Mr. Lucky
TTITLE8=I'm Bad Like Jesse James (Live)
TTITLE9=Shake It Baby
TTITLE10=Blue Bird
TTITLE11=The Motor City Is Burning
TTITLE12=It Serves You Right To Suffer
TTITLE13=Think Twice Before You Go
TTITLE14=House Rent Boogie
TTITLE15=The Waterfront
TTITLE16=Bang, Bang, Bang, Bang
EXTD=MCA Records - MCD 30481 BM600\nThis compilation: 1993 BMG France\nPrinted 
EXTD=in Germany
EXTT0=
EXTT1=
EXTT2=
EXTT3=
EXTT4=
EXTT5=
EXTT6=
EXTT7=
EXTT8=
EXTT9=
EXTT10=
EXTT11=
EXTT12=
EXTT13=
EXTT14=
EXTT15=
EXTT16=
PLAYORDER=
